<svg viewBox="0 0 1400 1400" width="1400" height="1400" xmlns="http://www.w3.org/2000/svg" class="RewardsPage___StyledLogoSmall-sc-1me5g30-45 cVLqBS"><defs><style>
      .bg {
        fill: #fff;
      }

      .ring {
        fill: #000;
      }

      .accent {
        fill: #00b2ec;
      }

      <!-- .dark .bg {
        fill: #000;
      }

      .dark .ring {
        fill: #000000;
      } -->
    </style></defs><g transform="translate(-300.82001,-300.82001)"><circle cx="1000.82" cy="1000.82" r="700" class="bg"></circle><path d="m 1001.89,1267.47 c -0.31,0 -0.6,0 -0.91,0 a 267.17,267.17 0 0 1 -199,-89 c -98,-109.66 -88.45,-278.57 21.2,-376.53 a 266.15,266.15 0 0 1 177.52,-67.81 v 0 a 267.12,267.12 0 0 1 199,89 c 65.89,73.75 83.08,174.3 54,262.05 l 119.84,161 c 108.75,-164.9 97.84,-388.41 -40,-542.66 C 1245.41,604.87 1123.32,554.6 1000.69,554.61 A 444.5,444.5 0 0 0 703.59,668.12 C 519.85,832.28 504,1114.31 668.13,1298.06 756.26,1396.71 878.35,1447 1001,1447 a 446.71,446.71 0 0 0 123.32,-17.42 c -4.62,-4.9 -122.43,-162.11 -122.43,-162.11 z" class="ring"></path><path d="M 1441,1446.07 1287.65,1240 1205.01,1129 v 0 l -5.46,-7.35 c -1.38,-1.7 -3.11,-3.71 -5,-5.83 a 178.31,178.31 0 0 0 -13.6,-13.67 q -3.18,-2.88 -6.8,-5.86 -1.83,-1.5 -3.78,-3 -1.95,-1.5 -3.9,-3 -4.05,-3 -8.56,-6 c -27.05,-18 -66.28,-34.46 -119,-34.46 H 922.39 l 0.42,0.57 -0.42,0.32 153.36,206.09 82.63,111.06 v 0 l 5.46,7.34 c 1.37,1.7 3.11,3.71 5,5.84 a 180.11,180.11 0 0 0 13.6,13.67 c 2.12,1.91 4.39,3.87 6.8,5.85 q 1.83,1.5 3.78,3 1.95,1.5 3.89,3 4.07,3 8.57,6 c 27,17.94 66.27,34.45 119,34.45 H 1441 l -0.42,-0.57 z" class="accent"></path></g></svg>