<svg id="avalanche-avax-logo" xmlns="http://www.w3.org/2000/svg" width="20" height="20" viewBox="0 0 20 20">
  <circle id="Ellipse_47" data-name="Ellipse 47" cx="10" cy="10" r="10" fill="#e84142"/>
  <path id="Path_7017" data-name="Path 7017" d="M47.712,39.8a.666.666,0,0,1,1.261,0l2.173,3.815c.349.6.063,1.095-.635,1.095H46.133c-.69,0-.976-.492-.635-1.095Zm-4.2-7.344a.66.66,0,0,1,1.253,0l.484.872,1.142,2.007a2.085,2.085,0,0,1,0,1.816l-3.831,6.638a2.014,2.014,0,0,1-1.57.92h-3.18c-.7,0-.983-.484-.634-1.095Z" transform="translate(-34.086 -29.462)" fill="#fff"/>
</svg>
