<svg width="15" height="14" viewBox="0 0 15 14" fill="none" xmlns="http://www.w3.org/2000/svg">
<path fill-rule="evenodd" clip-rule="evenodd" d="M1.63084 8.50873L0.109375 7.05875L1.67858 5.56329L3.20004 7.01326L1.63084 8.50873ZM9.88357 5.91124L7.12081 3.27756L4.35639 5.91124L2.83493 4.46127L7.10833 0.388672L7.1203 0.399711L7.13164 0.388672L11.405 4.46127L9.88357 5.91124ZM7.11042 13.6109L7.09905 13.5996L7.08711 13.6109L2.81371 9.5383L4.33518 8.08833L7.09905 10.7222L9.86236 8.08833L11.3838 9.5383L7.11042 13.6109ZM7.09719 8.55422L5.57573 7.10425L7.14493 5.60878L8.66639 7.05875L7.09719 8.55422ZM12.5402 8.43628L11.0187 6.98631L12.5879 5.49084L14.1094 6.94081L12.5402 8.43628Z" fill="#F3B92F"/>
</svg>
